<?xml version="1.0" encoding="UTF-8" standalone="no"?>
<svg
   width="125pt"
   height="75.5086pt"
   viewBox="0 0 125 75.5086"
   version="1.2"
   id="svg117"
   xmlns="http://www.w3.org/2000/svg"
   xmlns:svg="http://www.w3.org/2000/svg">
  <defs
     id="defs58" />
  <g
     id="surface9025">
    <g
       style="fill:rgb(76.863098%,87.059021%,90.98053%);fill-opacity:1;"
       id="creative-agency">
      <g
         id="y1"
         transform="translate(2.5840001,69.367867)">
        <path
           style="stroke:none"
           d="m -1.828125,1.1875 c 0,0.609375 0.171875,1.0625 0.53125,1.390625 C -1.125,2.734375 -0.90625,2.875 -0.640625,2.96875 l 5.53125,2.296875 V 4.109375 L 1.09375,2.703125 v -0.0625 L 4.890625,1.234375 V 0.078125 L -0.0625,2.109375 -0.390625,1.96875 c -0.625,-0.25 -0.703125,-0.625 -0.578125,-1.171875 L -0.953125,0.71875 -1.71875,0.453125 C -1.78125,0.59375 -1.828125,0.875 -1.828125,1.1875 Z m 0,0"
           id="path1995" />
      </g>
      <g
         id="c2"
         transform="translate(2.5840001,64.184319)">
        <path
           style="stroke:none"
           d="m -0.09375,2.84375 c 0,0.875 0.296875,1.546875 0.796875,1.9375 0.25,0.203125 0.53125,0.3125 0.84375,0.359375 v -1.0625 C 1.015625,3.953125 0.703125,3.484375 0.703125,2.859375 0.703125,2.25 1,1.78125 1.515625,1.53125 1.78125,1.40625 2.09375,1.359375 2.4375,1.359375 3.140625,1.359375 3.671875,1.625 3.953125,2.0625 4.078125,2.296875 4.15625,2.546875 4.15625,2.859375 4.15625,3.3125 3.984375,3.65625 3.734375,3.875 3.609375,3.96875 3.46875,4.046875 3.3125,4.078125 v 1.0625 C 3.96875,5.0625 4.484375,4.625 4.75,3.96875 4.890625,3.640625 4.953125,3.265625 4.953125,2.84375 4.953125,1.796875 4.5,1.015625 3.734375,0.578125 3.359375,0.375 2.921875,0.265625 2.421875,0.265625 1.4375,0.265625 0.65625,0.6875 0.21875,1.46875 c -0.203125,0.390625 -0.3125,0.84375 -0.3125,1.375 z m 0,0"
           id="path2017" />
      </g>
      <g
         id="n1"
         transform="translate(2.5840001,58.509712)">
        <path
           style="stroke:none"
           d="m 2.90625,1.59375 c 0.53125,0 0.890625,0.234375 1.078125,0.640625 0.09375,0.1875 0.15625,0.40625 0.15625,0.65625 0,0.734375 -0.4375,1.1875 -1.140625,1.1875 H 0 V 5.15625 h 3.109375 c 0.8125,0 1.359375,-0.328125 1.640625,-0.890625 0.140625,-0.296875 0.203125,-0.625 0.203125,-1 0,-0.84375 -0.328125,-1.375 -0.859375,-1.625 V 1.5625 H 4.890625 V 0.515625 H 0 V 1.59375 Z m 0,0"
           id="path2039" />
      </g>
      <g
         id="e3"
         transform="translate(2.5840001,52.977737)">
        <path
           style="stroke:none"
           d="M 2.5,5.296875 C 3.375,5.296875 4,5 4.390625,4.53125 4.78125,4.046875 4.953125,3.453125 4.953125,2.8125 4.953125,1.78125 4.5,1 3.734375,0.578125 c -0.375,-0.21875 -0.8125,-0.3125 -1.328125,-0.3125 -1,0 -1.78125,0.4375 -2.1875,1.234375 C 0,1.890625 -0.09375,2.375 -0.09375,2.90625 c 0,0.8125 0.21875,1.453125 0.625,1.875 0.1875,0.203125 0.421875,0.359375 0.6875,0.4375 L 1.390625,4.1875 C 1.078125,4.0625 0.859375,3.8125 0.765625,3.484375 0.703125,3.3125 0.6875,3.125 0.6875,2.921875 c 0,-0.640625 0.25,-1.125 0.71875,-1.390625 0.203125,-0.109375 0.453125,-0.171875 0.75,-0.1875 V 5.296875 Z M 3.96875,2.015625 C 4.109375,2.234375 4.171875,2.5 4.171875,2.8125 c 0,0.625 -0.28125,1.046875 -0.734375,1.265625 C 3.265625,4.15625 3.078125,4.203125 2.875,4.21875 v -2.875 C 3.328125,1.375 3.734375,1.609375 3.96875,2.015625 Z m 0,0"
           id="path2061" />
      </g>
      <g
         id="g1"
         transform="translate(2.5840001,47.119751)">
        <path
           style="stroke:none"
           d="m -1.9375,2.828125 c 0,0.953125 0.25,1.75 0.796875,2.1875 0.265625,0.21875 0.609375,0.328125 1.03125,0.328125 h 5 V 4.296875 H 4.09375 V 4.21875 c 0.203125,-0.140625 0.5,-0.359375 0.71875,-0.78125 0.09375,-0.21875 0.140625,-0.5 0.140625,-0.84375 0,-0.890625 -0.40625,-1.625 -1.15625,-2.03125 -0.375,-0.203125 -0.8125,-0.296875 -1.328125,-0.296875 -1.046875,0 -1.75,0.4375 -2.125,1.140625 -0.171875,0.34375 -0.265625,0.75 -0.265625,1.1875 0,0.671875 0.203125,1.078125 0.46875,1.328125 0.125,0.125 0.234375,0.21875 0.34375,0.265625 V 4.265625 H -0.0625 c -0.765625,0 -1.09375,-0.59375 -1.09375,-1.421875 C -1.15625,2.25 -1,1.890625 -0.796875,1.671875 -0.6875,1.5625 -0.59375,1.46875 -0.5,1.40625 L -0.828125,0.484375 C -1.421875,0.765625 -1.9375,1.5 -1.9375,2.828125 Z m 2.796875,0 c 0,-0.640625 0.296875,-1.09375 0.78125,-1.3125 C 1.875,1.40625 2.15625,1.359375 2.484375,1.359375 c 0.609375,0 1.140625,0.21875 1.4375,0.65625 0.140625,0.21875 0.21875,0.484375 0.21875,0.8125 0,0.640625 -0.296875,1.0625 -0.796875,1.28125 -0.25,0.109375 -0.53125,0.171875 -0.859375,0.171875 -1.015625,0 -1.625,-0.515625 -1.625,-1.453125 z m 0,0"
           id="path2083" />
      </g>
      <g
         id="a2"
         transform="translate(2.5840001,40.509907)">
        <path
           style="stroke:none"
           d="M 1.734375,1.90625 V 4.796875 L 0,5.484375 V 6.65625 L 6.515625,4 V 2.703125 L 0,0.046875 v 1.1875 z M 5.34375,3.375 2.546875,4.46875 V 2.234375 L 5.34375,3.3125 Z m 0,0"
           id="path2105" />
      </g>
      <g
         id="e2"
         transform="translate(2.5840001,32.706051)">
        <path
           style="stroke:none"
           d="M 2.5,5.296875 C 3.375,5.296875 4,5 4.390625,4.53125 4.78125,4.046875 4.953125,3.453125 4.953125,2.8125 4.953125,1.78125 4.5,1 3.734375,0.578125 c -0.375,-0.21875 -0.8125,-0.3125 -1.328125,-0.3125 -1,0 -1.78125,0.4375 -2.1875,1.234375 C 0,1.890625 -0.09375,2.375 -0.09375,2.90625 c 0,0.8125 0.21875,1.453125 0.625,1.875 0.1875,0.203125 0.421875,0.359375 0.6875,0.4375 L 1.390625,4.1875 C 1.078125,4.0625 0.859375,3.8125 0.765625,3.484375 0.703125,3.3125 0.6875,3.125 0.6875,2.921875 c 0,-0.640625 0.25,-1.125 0.71875,-1.390625 0.203125,-0.109375 0.453125,-0.171875 0.75,-0.1875 V 5.296875 Z M 3.96875,2.015625 C 4.109375,2.234375 4.171875,2.5 4.171875,2.8125 c 0,0.625 -0.28125,1.046875 -0.734375,1.265625 C 3.265625,4.15625 3.078125,4.203125 2.875,4.21875 v -2.875 C 3.328125,1.375 3.734375,1.609375 3.96875,2.015625 Z m 0,0"
           id="path2127" />
      </g>
      <g
         id="v1"
         transform="translate(2.5840001,27.557137)">
        <path
           style="stroke:none"
           d="M 4.890625,5.265625 V 4.109375 L 1.125,2.703125 v -0.0625 L 4.890625,1.234375 V 0.078125 L 0,2.09375 V 3.25 Z m 0,0"
           id="path2149" />
      </g>
      <g
         id="i1"
         transform="translate(2.5840001,25.448263)">
        <path
           style="stroke:none"
           d="m 5.640625,1.0625 c 0,0.375 0.265625,0.671875 0.578125,0.671875 0.3125,0 0.5625,-0.296875 0.5625,-0.671875 0,-0.375 -0.25,-0.6875 -0.5625,-0.6875 -0.3125,0 -0.578125,0.3125 -0.578125,0.6875 z m -0.75,0.53125 V 0.515625 H 0 V 1.59375 Z m 0,0"
           id="path2171" />
      </g>
      <g
         id="t1"
         transform="translate(2.5840001,22.086288)">
        <path
           style="stroke:none"
           d="M 0.828125,3.015625 C 0.796875,2.875 0.78125,2.75 0.78125,2.625 0.78125,2.15625 0.984375,1.953125 1.4375,1.953125 H 4.125 v 1.15625 H 4.890625 V 1.953125 H 6.0625 V 0.875 H 4.890625 V 0.0625 H 4.125 V 0.875 H 1.25 c -0.796875,0 -1.3125,0.625 -1.3125,1.59375 0,0.25 0.03125,0.53125 0.09375,0.75 z m 0,0"
           id="path2193" />
      </g>
      <g
         id="a1"
         transform="translate(2.5840001,16.696943)">
        <path
           style="stroke:none"
           d="m -0.109375,2.125 c 0,0.625 0.171875,1.046875 0.421875,1.34375 0.125,0.125 0.234375,0.234375 0.359375,0.296875 V 3.8125 H 0 V 4.875 h 3.25 c 0.703125,0 1.140625,-0.3125 1.390625,-0.75 0.234375,-0.4375 0.3125,-0.96875 0.3125,-1.40625 0,-0.671875 -0.15625,-1.296875 -0.53125,-1.765625 C 4.25,0.71875 4,0.546875 3.703125,0.421875 L 3.5,1.4375 c 0.359375,0.15625 0.671875,0.578125 0.671875,1.296875 0,0.6875 -0.3125,1.046875 -0.859375,1.046875 H 3.28125 C 3.0625,3.78125 2.96875,3.609375 2.9375,3.1875 2.90625,2.984375 2.875,2.71875 2.84375,2.375 2.78125,1.84375 2.703125,1.328125 2.484375,0.921875 2.265625,0.5 1.9375,0.25 1.390625,0.25 0.75,0.25 0.296875,0.609375 0.0625,1.171875 -0.046875,1.453125 -0.109375,1.78125 -0.109375,2.125 Z M 0.65625,2.359375 C 0.65625,1.75 0.890625,1.3125 1.375,1.3125 c 0.328125,0 0.53125,0.21875 0.640625,0.5625 0.0625,0.171875 0.09375,0.375 0.125,0.578125 0.03125,0.34375 0.109375,1.140625 0.25,1.34375 h -0.625 c -0.375,0 -0.75,-0.234375 -0.953125,-0.65625 C 0.703125,2.921875 0.65625,2.671875 0.65625,2.359375 Z m 0,0"
           id="path2215" />
      </g>
      <g
         id="e1"
         transform="translate(2.5840001,11.164967)">
        <path
           style="stroke:none"
           d="M 2.5,5.296875 C 3.375,5.296875 4,5 4.390625,4.53125 4.78125,4.046875 4.953125,3.453125 4.953125,2.8125 4.953125,1.78125 4.5,1 3.734375,0.578125 c -0.375,-0.21875 -0.8125,-0.3125 -1.328125,-0.3125 -1,0 -1.78125,0.4375 -2.1875,1.234375 C 0,1.890625 -0.09375,2.375 -0.09375,2.90625 c 0,0.8125 0.21875,1.453125 0.625,1.875 0.1875,0.203125 0.421875,0.359375 0.6875,0.4375 L 1.390625,4.1875 C 1.078125,4.0625 0.859375,3.8125 0.765625,3.484375 0.703125,3.3125 0.6875,3.125 0.6875,2.921875 c 0,-0.640625 0.25,-1.125 0.71875,-1.390625 0.203125,-0.109375 0.453125,-0.171875 0.75,-0.1875 V 5.296875 Z M 3.96875,2.015625 C 4.109375,2.234375 4.171875,2.5 4.171875,2.8125 c 0,0.625 -0.28125,1.046875 -0.734375,1.265625 C 3.265625,4.15625 3.078125,4.203125 2.875,4.21875 v -2.875 C 3.328125,1.375 3.734375,1.609375 3.96875,2.015625 Z m 0,0"
           id="path2237" />
      </g>
      <g
         id="c1"
         transform="translate(2.5840001,0.81620002)">
        <path
           style="stroke:none"
           d="m -0.09375,3.6875 c 0,0.8125 0.234375,1.515625 0.625,2.046875 C 0.921875,6.28125 1.453125,6.625 2.09375,6.75 V 5.625 C 1.6875,5.53125 1.359375,5.28125 1.140625,4.9375 0.921875,4.59375 0.8125,4.171875 0.8125,3.703125 c 0,-0.84375 0.375,-1.546875 1.109375,-1.9375 C 2.28125,1.5625 2.71875,1.46875 3.265625,1.46875 c 1.046875,0 1.78125,0.40625 2.171875,1.09375 0.171875,0.34375 0.265625,0.71875 0.265625,1.140625 0,0.46875 -0.109375,0.90625 -0.328125,1.25 C 5.15625,5.28125 4.828125,5.53125 4.390625,5.625 V 6.75 C 5.09375,6.625 5.65625,6.25 6.03125,5.71875 c 0.375,-0.546875 0.578125,-1.25 0.578125,-2.03125 0,-1.265625 -0.5625,-2.3125 -1.5625,-2.890625 -0.5,-0.296875 -1.09375,-0.4375 -1.78125,-0.4375 -1.390625,0 -2.421875,0.609375 -2.953125,1.625 -0.265625,0.5 -0.40625,1.0625 -0.40625,1.703125 z m 0,0"
           id="path2259" />
      </g>
      <g
         id="r1"
         transform="translate(2.5840001,7.8763452)">
        <path
           style="stroke:none"
           d="m 2.984375,1.59375 c 0.421875,0 0.765625,0.234375 0.953125,0.640625 0.109375,0.203125 0.140625,0.4375 0.140625,0.6875 0,0.21875 -0.03125,0.484375 -0.046875,0.5625 H 4.9375 C 4.953125,3.375 4.96875,3.15625 4.96875,3.03125 4.96875,2.375 4.640625,1.828125 4.109375,1.609375 V 1.5625 h 0.78125 V 0.515625 H 0 V 1.59375 Z m 0,0"
           id="path2281" />
      </g>
    </g>
    <g
       clip-rule="nonzero"
       id="sota">
      <path
         style=" stroke:none;fill-rule:nonzero;fill:rgb(21.960449%,21.960449%,22.744751%);fill-opacity:1;"
         d="M 108.238281 56.9375 L 113.777344 56.9375 L 109.515625 23.371094 L 105.546875 53.875 C 105.335938 55.496094 106.597656 56.9375 108.238281 56.9375 M 114.023438 2.765625 L 125.074219 75.054688 L 116.550781 75.054688 L 114.949219 64.398438 L 103.976562 64.398438 L 102.375 75.054688 L 93.851562 75.054688 L 105.253906 0.457031 L 111.335938 0.457031 C 112.679688 0.457031 113.820312 1.4375 114.023438 2.765625 "
         id="big-a" />
      <path
         style=" stroke:none;fill-rule:nonzero;fill:rgb(21.960449%,21.960449%,22.744751%);fill-opacity:1;"
         d="M 79.058594 14.570312 L 73.734375 14.570312 L 73.734375 7.847656 L 94.539062 7.847656 C 95.878906 7.847656 96.96875 8.9375 96.96875 10.277344 L 96.96875 14.570312 L 89.191406 14.570312 L 89.191406 75.054688 L 83.960938 75.054688 C 82.609375 75.054688 81.511719 73.957031 81.511719 72.605469 L 81.511719 17.019531 C 81.511719 15.667969 80.414062 14.570312 79.058594 14.570312 "
         id="big-t" />
      <path
         style=" stroke:none;fill-rule:nonzero;fill:rgb(21.960449%,21.960449%,22.744751%);fill-opacity:1;"
         d="M 60.949219 68.332031 L 60.949219 17.015625 C 60.949219 15.664062 59.851562 14.570312 58.5 14.570312 L 54.226562 14.570312 L 54.226562 65.878906 C 54.226562 67.234375 55.324219 68.332031 56.679688 68.332031 Z M 61.90625 7.847656 C 65.652344 7.847656 68.628906 10.824219 68.628906 14.570312 L 68.628906 68.332031 C 68.628906 72.078125 65.652344 75.054688 61.90625 75.054688 L 53.265625 75.054688 C 49.523438 75.054688 46.546875 72.078125 46.546875 68.332031 L 46.546875 14.570312 C 46.546875 10.824219 49.523438 7.847656 53.265625 7.847656 Z M 61.90625 7.847656 "
         id="big-o" />
      <path
         style=" stroke:none;fill-rule:nonzero;fill:rgb(21.960449%,21.960449%,22.744751%);fill-opacity:1;"
         d="M 25.761719 27.101562 C 25.761719 32.425781 41.320312 45.109375 41.320312 53.421875 L 41.320312 67.59375 C 41.320312 71.714844 37.980469 75.054688 33.859375 75.054688 L 25.335938 75.054688 C 21.21875 75.054688 17.878906 71.714844 17.878906 67.59375 L 17.878906 50.332031 L 26.402344 50.332031 L 26.402344 64.871094 C 26.402344 66.375 27.621094 67.59375 29.125 67.59375 L 32.796875 67.59375 L 32.796875 53.421875 C 32.796875 48.09375 17.238281 35.410156 17.238281 27.101562 L 17.238281 7.917969 C 17.238281 3.796875 20.578125 0.457031 24.695312 0.457031 L 33.222656 0.457031 C 37.34375 0.457031 40.683594 3.796875 40.683594 7.917969 L 40.683594 29.230469 L 32.15625 29.230469 L 32.15625 10.621094 C 32.15625 9.128906 30.945312 7.917969 29.453125 7.917969 L 25.761719 7.917969 Z M 25.761719 27.101562 "
         id="big-s" />
    </g>
  </g>
</svg>
